<svg xmlns="http://www.w3.org/2000/svg" viewBox="0 0 512 512" role="img" aria-label="Cafe Daniel Logo">
  <defs>
    <linearGradient id="g" x1="96" x2="416" y1="64" y2="448" gradientUnits="userSpaceOnUse">
      <stop stop-color="#ffffff"/>
      <stop offset="1" stop-color="#e8f4ff"/>
    </linearGradient>
    <linearGradient id="b" x1="140" x2="372" y1="118" y2="394" gradientUnits="userSpaceOnUse">
      <stop stop-color="#0a72c9"/>
      <stop offset="1" stop-color="#004a91"/>
    </linearGradient>
  </defs>
  <rect width="512" height="512" rx="112" fill="#f7fbff"/>
  <circle cx="256" cy="256" r="202" fill="url(#g)" stroke="#0a64ad" stroke-width="18"/>
  <circle cx="256" cy="256" r="168" fill="url(#b)"/>
  <path d="M156 178c45-44 155-44 200 0" fill="none" stroke="#ffffff" stroke-width="20" stroke-linecap="round"/>
  <path d="M168 352c52 34 124 34 176 0" fill="none" stroke="#ffffff" stroke-width="18" stroke-linecap="round"/>
  <g fill="#ffffff">
    <path d="M184 236h112v104a28 28 0 0 1-28 28h-56a28 28 0 0 1-28-28V236Zm112 32h22a42 42 0 0 1 0 84h-22v-24h22a18 18 0 0 0 0-36h-22v-24Z"/>
    <rect x="174" y="206" width="132" height="34" rx="17"/>
    <circle cx="214" cy="188" r="18"/>
    <circle cx="252" cy="178" r="24"/>
    <circle cx="288" cy="192" r="17"/>
  </g>
  <text x="256" y="116" text-anchor="middle" font-family="Arial, Helvetica, sans-serif" font-size="38" font-weight="900" fill="#0b2741" letter-spacing="2">CAFE</text>
  <text x="256" y="428" text-anchor="middle" font-family="Arial, Helvetica, sans-serif" font-size="42" font-weight="900" fill="#0b2741" letter-spacing="1">DANIEL</text>
</svg>
